<svg xmlns="http://www.w3.org/2000/svg" version="1.1" xmlns:xlink="http://www.w3.org/1999/xlink" xmlns:svgjs="http://svgjs.com/svgjs" width="1440" height="560" preserveAspectRatio="none" viewBox="0 0 1440 560"><g mask="url(&quot;#SvgjsMask1000&quot;)" fill="none"><rect width="1440" height="560" x="0" y="0" fill="#0e2a47"></rect><path d="M180.99 -70.18L245.94 -32.68L245.94 42.32L180.99 79.82L116.03 42.32L116.03 -32.68zM180.99 154.82L245.94 192.32L245.94 267.32L180.99 304.82L116.03 267.32L116.03 192.32zM375.85 42.32L440.8 79.82L440.8 154.82L375.85 192.32L310.89 154.82L310.89 79.82zM310.89 379.82L375.85 417.32L375.85 492.32L310.89 529.82L245.94 492.32L245.94 417.32zM505.76 42.32L570.71 79.82L570.71 154.82L505.76 192.32L440.8 154.82L440.8 79.82zM440.8 154.82L505.76 192.32L505.76 267.32L440.8 304.82L375.85 267.32L375.85 192.32zM635.66 267.32L700.62 304.82L700.62 379.82L635.66 417.32L570.71 379.82L570.71 304.82zM635.66 492.32L700.62 529.82L700.62 604.82L635.66 642.32L570.71 604.82L570.71 529.82zM765.57 492.32L830.53 529.82L830.53 604.82L765.57 642.32L700.62 604.82L700.62 529.82zM830.52 -70.18L895.48 -32.68L895.48 42.32L830.52 79.82L765.57 42.32L765.57 -32.68zM895.48 42.32L960.43 79.82L960.43 154.82L895.48 192.32L830.52 154.82L830.52 79.82zM895.48 267.32L960.43 304.82L960.43 379.82L895.48 417.32L830.52 379.82L830.52 304.82zM895.48 492.32L960.43 529.82L960.43 604.82L895.48 642.32L830.52 604.82L830.52 529.82zM960.43 -70.18L1025.39 -32.68L1025.39 42.32L960.43 79.82L895.48 42.32L895.48 -32.68zM960.43 379.82L1025.39 417.32L1025.39 492.32L960.43 529.82L895.48 492.32L895.48 417.32zM1090.34 -70.18L1155.29 -32.68L1155.29 42.32L1090.34 79.82L1025.39 42.32L1025.39 -32.68zM1155.29 267.32L1220.25 304.82L1220.25 379.82L1155.29 417.32L1090.34 379.82L1090.34 304.82zM1285.2 42.32L1350.15 79.82L1350.15 154.82L1285.2 192.32L1220.25 154.82L1220.25 79.82zM1350.15 -70.18L1415.11 -32.68L1415.11 42.32L1350.15 79.82L1285.2 42.32L1285.2 -32.68zM1415.11 42.32L1480.06 79.82L1480.06 154.82L1415.11 192.32L1350.15 154.82L1350.15 79.82zM1350.15 379.82L1415.11 417.32L1415.11 492.32L1350.15 529.82L1285.2 492.32L1285.2 417.32zM1480.06 379.82L1545.02 417.32L1545.02 492.32L1480.06 529.82L1415.11 492.32L1415.11 417.32z" stroke="#03305d" stroke-width="2"></path><path d="M173.49 -70.18 a7.5 7.5 0 1 0 15 0 a7.5 7.5 0 1 0 -15 0zM238.44 -32.68 a7.5 7.5 0 1 0 15 0 a7.5 7.5 0 1 0 -15 0zM238.44 42.32 a7.5 7.5 0 1 0 15 0 a7.5 7.5 0 1 0 -15 0zM173.49 79.82 a7.5 7.5 0 1 0 15 0 a7.5 7.5 0 1 0 -15 0zM108.53 42.32 a7.5 7.5 0 1 0 15 0 a7.5 7.5 0 1 0 -15 0zM108.53 -32.68 a7.5 7.5 0 1 0 15 0 a7.5 7.5 0 1 0 -15 0zM173.49 154.82 a7.5 7.5 0 1 0 15 0 a7.5 7.5 0 1 0 -15 0zM238.44 192.32 a7.5 7.5 0 1 0 15 0 a7.5 7.5 0 1 0 -15 0zM238.44 267.32 a7.5 7.5 0 1 0 15 0 a7.5 7.5 0 1 0 -15 0zM173.49 304.82 a7.5 7.5 0 1 0 15 0 a7.5 7.5 0 1 0 -15 0zM108.53 267.32 a7.5 7.5 0 1 0 15 0 a7.5 7.5 0 1 0 -15 0zM108.53 192.32 a7.5 7.5 0 1 0 15 0 a7.5 7.5 0 1 0 -15 0zM368.35 42.32 a7.5 7.5 0 1 0 15 0 a7.5 7.5 0 1 0 -15 0zM433.3 79.82 a7.5 7.5 0 1 0 15 0 a7.5 7.5 0 1 0 -15 0zM433.3 154.82 a7.5 7.5 0 1 0 15 0 a7.5 7.5 0 1 0 -15 0zM368.35 192.32 a7.5 7.5 0 1 0 15 0 a7.5 7.5 0 1 0 -15 0zM303.39 154.82 a7.5 7.5 0 1 0 15 0 a7.5 7.5 0 1 0 -15 0zM303.39 79.82 a7.5 7.5 0 1 0 15 0 a7.5 7.5 0 1 0 -15 0zM303.39 379.82 a7.5 7.5 0 1 0 15 0 a7.5 7.5 0 1 0 -15 0zM368.35 417.32 a7.5 7.5 0 1 0 15 0 a7.5 7.5 0 1 0 -15 0zM368.35 492.32 a7.5 7.5 0 1 0 15 0 a7.5 7.5 0 1 0 -15 0zM303.39 529.82 a7.5 7.5 0 1 0 15 0 a7.5 7.5 0 1 0 -15 0zM238.44 492.32 a7.5 7.5 0 1 0 15 0 a7.5 7.5 0 1 0 -15 0zM238.44 417.32 a7.5 7.5 0 1 0 15 0 a7.5 7.5 0 1 0 -15 0zM498.26 42.32 a7.5 7.5 0 1 0 15 0 a7.5 7.5 0 1 0 -15 0zM563.21 79.82 a7.5 7.5 0 1 0 15 0 a7.5 7.5 0 1 0 -15 0zM563.21 154.82 a7.5 7.5 0 1 0 15 0 a7.5 7.5 0 1 0 -15 0zM498.26 192.32 a7.5 7.5 0 1 0 15 0 a7.5 7.5 0 1 0 -15 0zM498.26 267.32 a7.5 7.5 0 1 0 15 0 a7.5 7.5 0 1 0 -15 0zM433.3 304.82 a7.5 7.5 0 1 0 15 0 a7.5 7.5 0 1 0 -15 0zM368.35 267.32 a7.5 7.5 0 1 0 15 0 a7.5 7.5 0 1 0 -15 0zM628.16 267.32 a7.5 7.5 0 1 0 15 0 a7.5 7.5 0 1 0 -15 0zM693.12 304.82 a7.5 7.5 0 1 0 15 0 a7.5 7.5 0 1 0 -15 0zM693.12 379.82 a7.5 7.5 0 1 0 15 0 a7.5 7.5 0 1 0 -15 0zM628.16 417.32 a7.5 7.5 0 1 0 15 0 a7.5 7.5 0 1 0 -15 0zM563.21 379.82 a7.5 7.5 0 1 0 15 0 a7.5 7.5 0 1 0 -15 0zM563.21 304.82 a7.5 7.5 0 1 0 15 0 a7.5 7.5 0 1 0 -15 0zM628.16 492.32 a7.5 7.5 0 1 0 15 0 a7.5 7.5 0 1 0 -15 0zM693.12 529.82 a7.5 7.5 0 1 0 15 0 a7.5 7.5 0 1 0 -15 0zM693.12 604.82 a7.5 7.5 0 1 0 15 0 a7.5 7.5 0 1 0 -15 0zM628.16 642.32 a7.5 7.5 0 1 0 15 0 a7.5 7.5 0 1 0 -15 0zM563.21 604.82 a7.5 7.5 0 1 0 15 0 a7.5 7.5 0 1 0 -15 0zM563.21 529.82 a7.5 7.5 0 1 0 15 0 a7.5 7.5 0 1 0 -15 0zM758.07 492.32 a7.5 7.5 0 1 0 15 0 a7.5 7.5 0 1 0 -15 0zM823.03 529.82 a7.5 7.5 0 1 0 15 0 a7.5 7.5 0 1 0 -15 0zM823.03 604.82 a7.5 7.5 0 1 0 15 0 a7.5 7.5 0 1 0 -15 0zM758.07 642.32 a7.5 7.5 0 1 0 15 0 a7.5 7.5 0 1 0 -15 0zM823.02 -70.18 a7.5 7.5 0 1 0 15 0 a7.5 7.5 0 1 0 -15 0zM887.98 -32.68 a7.5 7.5 0 1 0 15 0 a7.5 7.5 0 1 0 -15 0zM887.98 42.32 a7.5 7.5 0 1 0 15 0 a7.5 7.5 0 1 0 -15 0zM823.02 79.82 a7.5 7.5 0 1 0 15 0 a7.5 7.5 0 1 0 -15 0zM758.07 42.32 a7.5 7.5 0 1 0 15 0 a7.5 7.5 0 1 0 -15 0zM758.07 -32.68 a7.5 7.5 0 1 0 15 0 a7.5 7.5 0 1 0 -15 0zM952.93 79.82 a7.5 7.5 0 1 0 15 0 a7.5 7.5 0 1 0 -15 0zM952.93 154.82 a7.5 7.5 0 1 0 15 0 a7.5 7.5 0 1 0 -15 0zM887.98 192.32 a7.5 7.5 0 1 0 15 0 a7.5 7.5 0 1 0 -15 0zM823.02 154.82 a7.5 7.5 0 1 0 15 0 a7.5 7.5 0 1 0 -15 0zM887.98 267.32 a7.5 7.5 0 1 0 15 0 a7.5 7.5 0 1 0 -15 0zM952.93 304.82 a7.5 7.5 0 1 0 15 0 a7.5 7.5 0 1 0 -15 0zM952.93 379.82 a7.5 7.5 0 1 0 15 0 a7.5 7.5 0 1 0 -15 0zM887.98 417.32 a7.5 7.5 0 1 0 15 0 a7.5 7.5 0 1 0 -15 0zM823.02 379.82 a7.5 7.5 0 1 0 15 0 a7.5 7.5 0 1 0 -15 0zM823.02 304.82 a7.5 7.5 0 1 0 15 0 a7.5 7.5 0 1 0 -15 0zM887.98 492.32 a7.5 7.5 0 1 0 15 0 a7.5 7.5 0 1 0 -15 0zM952.93 529.82 a7.5 7.5 0 1 0 15 0 a7.5 7.5 0 1 0 -15 0zM952.93 604.82 a7.5 7.5 0 1 0 15 0 a7.5 7.5 0 1 0 -15 0zM887.98 642.32 a7.5 7.5 0 1 0 15 0 a7.5 7.5 0 1 0 -15 0zM823.02 604.82 a7.5 7.5 0 1 0 15 0 a7.5 7.5 0 1 0 -15 0zM823.02 529.82 a7.5 7.5 0 1 0 15 0 a7.5 7.5 0 1 0 -15 0zM952.93 -70.18 a7.5 7.5 0 1 0 15 0 a7.5 7.5 0 1 0 -15 0zM1017.89 -32.68 a7.5 7.5 0 1 0 15 0 a7.5 7.5 0 1 0 -15 0zM1017.89 42.32 a7.5 7.5 0 1 0 15 0 a7.5 7.5 0 1 0 -15 0zM1017.89 417.32 a7.5 7.5 0 1 0 15 0 a7.5 7.5 0 1 0 -15 0zM1017.89 492.32 a7.5 7.5 0 1 0 15 0 a7.5 7.5 0 1 0 -15 0zM1082.84 -70.18 a7.5 7.5 0 1 0 15 0 a7.5 7.5 0 1 0 -15 0zM1147.79 -32.68 a7.5 7.5 0 1 0 15 0 a7.5 7.5 0 1 0 -15 0zM1147.79 42.32 a7.5 7.5 0 1 0 15 0 a7.5 7.5 0 1 0 -15 0zM1082.84 79.82 a7.5 7.5 0 1 0 15 0 a7.5 7.5 0 1 0 -15 0zM1147.79 267.32 a7.5 7.5 0 1 0 15 0 a7.5 7.5 0 1 0 -15 0zM1212.75 304.82 a7.5 7.5 0 1 0 15 0 a7.5 7.5 0 1 0 -15 0zM1212.75 379.82 a7.5 7.5 0 1 0 15 0 a7.5 7.5 0 1 0 -15 0zM1147.79 417.32 a7.5 7.5 0 1 0 15 0 a7.5 7.5 0 1 0 -15 0zM1082.84 379.82 a7.5 7.5 0 1 0 15 0 a7.5 7.5 0 1 0 -15 0zM1082.84 304.82 a7.5 7.5 0 1 0 15 0 a7.5 7.5 0 1 0 -15 0zM1277.7 42.32 a7.5 7.5 0 1 0 15 0 a7.5 7.5 0 1 0 -15 0zM1342.65 79.82 a7.5 7.5 0 1 0 15 0 a7.5 7.5 0 1 0 -15 0zM1342.65 154.82 a7.5 7.5 0 1 0 15 0 a7.5 7.5 0 1 0 -15 0zM1277.7 192.32 a7.5 7.5 0 1 0 15 0 a7.5 7.5 0 1 0 -15 0zM1212.75 154.82 a7.5 7.5 0 1 0 15 0 a7.5 7.5 0 1 0 -15 0zM1212.75 79.82 a7.5 7.5 0 1 0 15 0 a7.5 7.5 0 1 0 -15 0zM1342.65 -70.18 a7.5 7.5 0 1 0 15 0 a7.5 7.5 0 1 0 -15 0zM1407.61 -32.68 a7.5 7.5 0 1 0 15 0 a7.5 7.5 0 1 0 -15 0zM1407.61 42.32 a7.5 7.5 0 1 0 15 0 a7.5 7.5 0 1 0 -15 0zM1277.7 -32.68 a7.5 7.5 0 1 0 15 0 a7.5 7.5 0 1 0 -15 0zM1472.56 79.82 a7.5 7.5 0 1 0 15 0 a7.5 7.5 0 1 0 -15 0zM1472.56 154.82 a7.5 7.5 0 1 0 15 0 a7.5 7.5 0 1 0 -15 0zM1407.61 192.32 a7.5 7.5 0 1 0 15 0 a7.5 7.5 0 1 0 -15 0zM1342.65 379.82 a7.5 7.5 0 1 0 15 0 a7.5 7.5 0 1 0 -15 0zM1407.61 417.32 a7.5 7.5 0 1 0 15 0 a7.5 7.5 0 1 0 -15 0zM1407.61 492.32 a7.5 7.5 0 1 0 15 0 a7.5 7.5 0 1 0 -15 0zM1342.65 529.82 a7.5 7.5 0 1 0 15 0 a7.5 7.5 0 1 0 -15 0zM1277.7 492.32 a7.5 7.5 0 1 0 15 0 a7.5 7.5 0 1 0 -15 0zM1277.7 417.32 a7.5 7.5 0 1 0 15 0 a7.5 7.5 0 1 0 -15 0zM1472.56 379.82 a7.5 7.5 0 1 0 15 0 a7.5 7.5 0 1 0 -15 0zM1537.52 417.32 a7.5 7.5 0 1 0 15 0 a7.5 7.5 0 1 0 -15 0zM1537.52 492.32 a7.5 7.5 0 1 0 15 0 a7.5 7.5 0 1 0 -15 0zM1472.56 529.82 a7.5 7.5 0 1 0 15 0 a7.5 7.5 0 1 0 -15 0z" fill="#03305d"></path><path d="M87.73 277.06L131.03 302.06L131.03 352.06L87.73 377.06L44.42 352.06L44.42 302.06zM87.73 427.06L131.03 452.06L131.03 502.06L87.73 527.06L44.42 502.06L44.42 452.06zM217.63 52.06L260.94 77.06L260.94 127.06L217.63 152.06L174.33 127.06L174.33 77.06zM260.94 277.06L304.24 302.06L304.24 352.06L260.94 377.06L217.63 352.06L217.63 302.06zM520.75 -22.94L564.05 2.06L564.05 52.06L520.75 77.06L477.45 52.06L477.45 2.06zM607.36 -22.94L650.66 2.06L650.66 52.06L607.36 77.06L564.05 52.06L564.05 2.06zM737.26 52.06L780.57 77.06L780.57 127.06L737.26 152.06L693.96 127.06L693.96 77.06zM737.26 202.06L780.57 227.06L780.57 277.06L737.26 302.06L693.96 277.06L693.96 227.06zM823.87 202.06L867.17 227.06L867.17 277.06L823.87 302.06L780.57 277.06L780.57 227.06zM780.57 277.06L823.87 302.06L823.87 352.06L780.57 377.06L737.26 352.06L737.26 302.06zM823.87 502.06L867.17 527.06L867.17 577.06L823.87 602.06L780.57 577.06L780.57 527.06zM867.17 277.06L910.47 302.06L910.47 352.06L867.17 377.06L823.87 352.06L823.87 302.06zM997.08 52.06L1040.38 77.06L1040.38 127.06L997.08 152.06L953.78 127.06L953.78 77.06zM953.78 427.06L997.08 452.06L997.08 502.06L953.78 527.06L910.47 502.06L910.47 452.06zM1170.29 352.06L1213.59 377.06L1213.59 427.06L1170.29 452.06L1126.98 427.06L1126.98 377.06zM1213.59 -22.94L1256.89 2.06L1256.89 52.06L1213.59 77.06L1170.29 52.06L1170.29 2.06zM1300.19 -22.94L1343.5 2.06L1343.5 52.06L1300.19 77.06L1256.89 52.06L1256.89 2.06zM1343.5 502.06L1386.8 527.06L1386.8 577.06L1343.5 602.06L1300.19 577.06L1300.19 527.06zM1430.1 502.06L1473.4 527.06L1473.4 577.06L1430.1 602.06L1386.8 577.06L1386.8 527.06z" stroke="rgba(6, 80, 156, 0.93)" stroke-width="2"></path></g><defs><mask id="SvgjsMask1000"><rect width="1440" height="560" fill="#ffffff"></rect></mask></defs></svg>